<svg width="139" height="44" viewBox="0 0 139 44" fill="none" xmlns="http://www.w3.org/2000/svg">
<path d="M138.5 0.5H0.5V43.5H138.5V0.5Z" stroke="white" stroke-linejoin="round"/>
<path d="M34.9521 34.2662H34.8397C34.2306 34.2662 33.7188 33.7666 33.6746 33.1289C33.6302 32.4602 34.1187 31.8781 34.7637 31.8341C34.7891 31.8324 34.8156 31.8315 34.8417 31.8315C35.4587 31.8315 35.9755 32.3214 36.0213 32.9482C36.0331 33.1967 35.9926 33.5509 35.7371 33.8434L35.7312 33.8502L35.7254 33.8571C35.5287 34.0907 35.2619 34.2316 34.9521 34.2662ZM21.22 34.2599C20.5695 34.2599 20.0402 33.7169 20.0402 33.0496C20.0402 32.3827 20.5695 31.8401 21.22 31.8401C21.8706 31.8401 22.3998 32.3827 22.3998 33.0496C22.3998 33.7169 21.8706 34.2599 21.22 34.2599Z" fill="white"/>
<path d="M34.8765 33.2662C34.9215 33.2549 34.9428 33.2339 34.9605 33.2129C34.9683 33.2037 34.9761 33.1946 34.9839 33.1855C35.0204 33.1438 35.0237 33.0553 35.0229 33.0105C35.0097 32.9044 34.9189 32.8315 34.8417 32.8315C34.838 32.8315 34.8341 32.8317 34.8317 32.8318C34.7536 32.8372 34.6658 32.9409 34.6724 33.0625C34.6818 33.1793 34.7679 33.2662 34.8397 33.2662H34.8765ZM21.22 33.2599C21.3192 33.2599 21.3998 33.1655 21.3998 33.0496C21.3998 32.9341 21.3192 32.8401 21.22 32.8401C21.1209 32.8401 21.0402 32.9341 21.0402 33.0496C21.0402 33.1655 21.1209 33.2599 21.22 33.2599ZM34.9999 35.2662C34.9522 35.2662 34.8883 35.2662 34.8397 35.2662C33.7021 35.2662 32.7571 34.3545 32.677 33.198C32.5969 31.9929 33.4942 30.9183 34.6957 30.8364C34.7446 30.8331 34.7933 30.8315 34.8417 30.8315C35.9804 30.8315 36.9418 31.7324 37.0195 32.8884C37.051 33.4915 36.8746 34.0612 36.4903 34.5012C36.106 34.9575 35.5768 35.2177 34.9999 35.2662ZM21.22 35.2599C20.0158 35.2599 19.0402 34.2709 19.0402 33.0496C19.0402 31.8291 20.0158 30.8401 21.22 30.8401C22.4242 30.8401 23.3998 31.8291 23.3998 33.0496C23.3998 34.2709 22.4242 35.2599 21.22 35.2599ZM34.1989 28.3938H22.1335C21.7006 28.3938 21.3163 28.1005 21.2038 27.6775L17.278 13.2477H14.5222C13.9939 13.2477 13.561 12.8086 13.561 12.2704C13.561 11.733 13.9939 11.293 14.5222 11.293H17.9998C18.4318 11.293 18.8161 11.5863 18.9286 12.0103L22.8544 26.4391H33.5581L37.1149 18.1338H25.2583C24.7291 18.1338 24.2962 17.6937 24.2962 17.1565C24.2962 16.6191 24.7291 16.1791 25.2583 16.1791H38.5891C38.9095 16.1791 39.2146 16.3419 39.3901 16.6191C39.5665 16.8954 39.5989 17.2374 39.4702 17.547L35.08 27.807C34.9198 28.1653 34.5832 28.3938 34.1989 28.3938Z" fill="white"/>
<path d="M34.8765 33.2662C34.9215 33.2549 34.9428 33.2339 34.9605 33.2129C34.9683 33.2037 34.9761 33.1946 34.9839 33.1855C35.0204 33.1438 35.0237 33.0553 35.0229 33.0105C35.0097 32.9044 34.9189 32.8315 34.8417 32.8315C34.838 32.8315 34.8341 32.8317 34.8317 32.8318C34.7536 32.8372 34.6658 32.9409 34.6724 33.0625C34.6818 33.1793 34.7679 33.2662 34.8397 33.2662H34.8765ZM21.22 33.2599C21.3192 33.2599 21.3998 33.1655 21.3998 33.0496C21.3998 32.9341 21.3192 32.8401 21.22 32.8401C21.1209 32.8401 21.0402 32.9341 21.0402 33.0496C21.0402 33.1655 21.1209 33.2599 21.22 33.2599ZM34.9999 35.2662C34.9522 35.2662 34.8883 35.2662 34.8397 35.2662C33.7021 35.2662 32.7571 34.3545 32.677 33.198C32.5969 31.9929 33.4942 30.9183 34.6957 30.8364C34.7446 30.8331 34.7933 30.8315 34.8417 30.8315C35.9804 30.8315 36.9418 31.7324 37.0195 32.8884C37.051 33.4915 36.8746 34.0612 36.4903 34.5012C36.106 34.9575 35.5768 35.2177 34.9999 35.2662ZM21.22 35.2599C20.0158 35.2599 19.0402 34.2709 19.0402 33.0496C19.0402 31.8291 20.0158 30.8401 21.22 30.8401C22.4242 30.8401 23.3998 31.8291 23.3998 33.0496C23.3998 34.2709 22.4242 35.2599 21.22 35.2599ZM34.1989 28.3938H22.1335C21.7006 28.3938 21.3163 28.1005 21.2038 27.6775L17.278 13.2477H14.5222C13.9939 13.2477 13.561 12.8086 13.561 12.2704C13.561 11.733 13.9939 11.293 14.5222 11.293H17.9998C18.4318 11.293 18.8161 11.5863 18.9286 12.0103L22.8544 26.4391H33.5581L37.1149 18.1338H25.2583C24.7291 18.1338 24.2962 17.6937 24.2962 17.1565C24.2962 16.6191 24.7291 16.1791 25.2583 16.1791H38.5891C38.9095 16.1791 39.2146 16.3419 39.3901 16.6191C39.5665 16.8954 39.5989 17.2374 39.4702 17.547L35.08 27.807C34.9198 28.1653 34.5832 28.3938 34.1989 28.3938Z" fill="white"/>
<path d="M57.201 24.511L55.626 20.43C55.5794 20.3087 55.5304 20.1687 55.479 20.01C55.4277 19.8467 55.3787 19.674 55.332 19.492C55.234 19.87 55.1337 20.185 55.031 20.437L53.456 24.511H57.201ZM60.029 28.235H58.979C58.8577 28.235 58.7597 28.2047 58.685 28.144C58.6104 28.0833 58.5544 28.0063 58.517 27.913L57.579 25.491H53.078L52.14 27.913C52.112 27.997 52.0584 28.0717 51.979 28.137C51.8997 28.2023 51.8017 28.235 51.685 28.235H50.635L54.646 18.204H56.018L60.029 28.235ZM65.5242 22.831C65.2909 22.5183 65.0389 22.3013 64.7682 22.18C64.4976 22.054 64.1942 21.991 63.8582 21.991C63.2002 21.991 62.6939 22.2267 62.3392 22.698C61.9846 23.1693 61.8072 23.8413 61.8072 24.714C61.8072 25.176 61.8469 25.5727 61.9262 25.904C62.0056 26.2307 62.1222 26.5013 62.2762 26.716C62.4302 26.926 62.6192 27.08 62.8432 27.178C63.0672 27.276 63.3216 27.325 63.6062 27.325C64.0169 27.325 64.3739 27.2317 64.6772 27.045C64.9852 26.8583 65.2676 26.5947 65.5242 26.254V22.831ZM66.7702 17.924V28.235H66.0282C65.8509 28.235 65.7389 28.1487 65.6922 27.976L65.5802 27.115C65.2769 27.479 64.9316 27.773 64.5442 27.997C64.1569 28.221 63.7089 28.333 63.2002 28.333C62.7942 28.333 62.4256 28.256 62.0942 28.102C61.7629 27.9433 61.4806 27.7123 61.2472 27.409C61.0139 27.1057 60.8342 26.7277 60.7082 26.275C60.5822 25.8223 60.5192 25.302 60.5192 24.714C60.5192 24.1913 60.5892 23.706 60.7292 23.258C60.8692 22.8053 61.0699 22.4133 61.3312 22.082C61.5926 21.7507 61.9122 21.4917 62.2902 21.305C62.6729 21.1137 63.1022 21.018 63.5782 21.018C64.0122 21.018 64.3832 21.0927 64.6912 21.242C65.0039 21.3867 65.2816 21.5897 65.5242 21.851V17.924H66.7702ZM73.3582 22.831C73.1249 22.5183 72.8729 22.3013 72.6022 22.18C72.3316 22.054 72.0282 21.991 71.6922 21.991C71.0342 21.991 70.5279 22.2267 70.1732 22.698C69.8186 23.1693 69.6412 23.8413 69.6412 24.714C69.6412 25.176 69.6809 25.5727 69.7602 25.904C69.8396 26.2307 69.9562 26.5013 70.1102 26.716C70.2642 26.926 70.4532 27.08 70.6772 27.178C70.9012 27.276 71.1556 27.325 71.4402 27.325C71.8509 27.325 72.2079 27.2317 72.5112 27.045C72.8192 26.8583 73.1016 26.5947 73.3582 26.254V22.831ZM74.6042 17.924V28.235H73.8622C73.6849 28.235 73.5729 28.1487 73.5262 27.976L73.4142 27.115C73.1109 27.479 72.7656 27.773 72.3782 27.997C71.9909 28.221 71.5429 28.333 71.0342 28.333C70.6282 28.333 70.2596 28.256 69.9282 28.102C69.5969 27.9433 69.3146 27.7123 69.0812 27.409C68.8479 27.1057 68.6682 26.7277 68.5422 26.275C68.4162 25.8223 68.3532 25.302 68.3532 24.714C68.3532 24.1913 68.4232 23.706 68.5632 23.258C68.7032 22.8053 68.9039 22.4133 69.1652 22.082C69.4266 21.7507 69.7462 21.4917 70.1242 21.305C70.5069 21.1137 70.9362 21.018 71.4122 21.018C71.8462 21.018 72.2172 21.0927 72.5252 21.242C72.8379 21.3867 73.1156 21.5897 73.3582 21.851V17.924H74.6042ZM82.3312 28.347C81.7712 28.347 81.3396 28.1907 81.0362 27.878C80.7376 27.5653 80.5882 27.115 80.5882 26.527V22.187H79.7342C79.6596 22.187 79.5966 22.166 79.5452 22.124C79.4939 22.0773 79.4682 22.0073 79.4682 21.914V21.417L80.6302 21.27L80.9172 19.079C80.9312 19.009 80.9616 18.953 81.0082 18.911C81.0596 18.8643 81.1249 18.841 81.2042 18.841H81.8342V21.284H83.8852V22.187H81.8342V26.443C81.8342 26.7417 81.9066 26.9633 82.0512 27.108C82.1959 27.2527 82.3826 27.325 82.6112 27.325C82.7419 27.325 82.8539 27.3087 82.9472 27.276C83.0452 27.2387 83.1292 27.199 83.1992 27.157C83.2692 27.115 83.3276 27.0777 83.3742 27.045C83.4256 27.0077 83.4699 26.989 83.5072 26.989C83.5726 26.989 83.6309 27.0287 83.6822 27.108L84.0462 27.703C83.8316 27.9037 83.5726 28.0623 83.2692 28.179C82.9659 28.291 82.6532 28.347 82.3312 28.347ZM88.1198 21.032C88.6378 21.032 89.1045 21.1183 89.5198 21.291C89.9351 21.4637 90.2898 21.7087 90.5838 22.026C90.8778 22.3433 91.1018 22.7283 91.2558 23.181C91.4145 23.629 91.4938 24.1307 91.4938 24.686C91.4938 25.246 91.4145 25.75 91.2558 26.198C91.1018 26.646 90.8778 27.0287 90.5838 27.346C90.2898 27.6633 89.9351 27.9083 89.5198 28.081C89.1045 28.249 88.6378 28.333 88.1198 28.333C87.5971 28.333 87.1258 28.249 86.7058 28.081C86.2905 27.9083 85.9358 27.6633 85.6418 27.346C85.3478 27.0287 85.1215 26.646 84.9628 26.198C84.8088 25.75 84.7318 25.246 84.7318 24.686C84.7318 24.1307 84.8088 23.629 84.9628 23.181C85.1215 22.7283 85.3478 22.3433 85.6418 22.026C85.9358 21.7087 86.2905 21.4637 86.7058 21.291C87.1258 21.1183 87.5971 21.032 88.1198 21.032ZM88.1198 27.36C88.8198 27.36 89.3425 27.1267 89.6878 26.66C90.0331 26.1887 90.2058 25.533 90.2058 24.693C90.2058 23.8483 90.0331 23.1903 89.6878 22.719C89.3425 22.2477 88.8198 22.012 88.1198 22.012C87.7651 22.012 87.4548 22.0727 87.1888 22.194C86.9275 22.3153 86.7081 22.4903 86.5308 22.719C86.3581 22.9477 86.2275 23.23 86.1388 23.566C86.0548 23.8973 86.0128 24.273 86.0128 24.693C86.0128 25.533 86.1855 26.1887 86.5308 26.66C86.8808 27.1267 87.4105 27.36 88.1198 27.36ZM103.992 26.163C104.067 26.163 104.132 26.1933 104.188 26.254L104.727 26.835C104.317 27.311 103.817 27.682 103.229 27.948C102.646 28.214 101.939 28.347 101.108 28.347C100.39 28.347 99.7362 28.2233 99.1482 27.976C98.5602 27.724 98.0585 27.374 97.6432 26.926C97.2279 26.4733 96.9059 25.932 96.6772 25.302C96.4485 24.672 96.3342 23.979 96.3342 23.223C96.3342 22.467 96.4532 21.774 96.6912 21.144C96.9292 20.514 97.2629 19.9727 97.6922 19.52C98.1262 19.0673 98.6442 18.7173 99.2462 18.47C99.8482 18.218 100.513 18.092 101.241 18.092C101.955 18.092 102.585 18.2063 103.131 18.435C103.677 18.6637 104.158 18.974 104.573 19.366L104.125 19.989C104.097 20.0357 104.06 20.0753 104.013 20.108C103.971 20.136 103.913 20.15 103.838 20.15C103.754 20.15 103.652 20.1057 103.53 20.017C103.409 19.9237 103.25 19.821 103.054 19.709C102.858 19.597 102.613 19.4967 102.319 19.408C102.025 19.3147 101.664 19.268 101.234 19.268C100.716 19.268 100.243 19.359 99.8132 19.541C99.3839 19.7183 99.0129 19.9773 98.7002 20.318C98.3922 20.6587 98.1519 21.074 97.9792 21.564C97.8065 22.054 97.7202 22.607 97.7202 23.223C97.7202 23.8483 97.8089 24.406 97.9862 24.896C98.1682 25.386 98.4132 25.8013 98.7212 26.142C99.0339 26.478 99.4002 26.7347 99.8202 26.912C100.245 27.0893 100.702 27.178 101.192 27.178C101.491 27.178 101.759 27.1617 101.997 27.129C102.24 27.0917 102.462 27.0357 102.662 26.961C102.868 26.8863 103.057 26.793 103.229 26.681C103.407 26.5643 103.582 26.4267 103.754 26.268C103.834 26.198 103.913 26.163 103.992 26.163ZM109.851 25.043C109.277 25.0617 108.787 25.1083 108.381 25.183C107.979 25.253 107.65 25.3463 107.394 25.463C107.142 25.5797 106.957 25.7173 106.841 25.876C106.729 26.0347 106.673 26.212 106.673 26.408C106.673 26.5947 106.703 26.7557 106.764 26.891C106.824 27.0263 106.906 27.1383 107.009 27.227C107.116 27.311 107.24 27.374 107.38 27.416C107.524 27.4533 107.678 27.472 107.842 27.472C108.061 27.472 108.262 27.451 108.444 27.409C108.626 27.3623 108.796 27.297 108.955 27.213C109.118 27.129 109.272 27.0287 109.417 26.912C109.566 26.7953 109.711 26.6623 109.851 26.513V25.043ZM105.826 22.145C106.218 21.767 106.64 21.4847 107.093 21.298C107.545 21.1113 108.047 21.018 108.598 21.018C108.994 21.018 109.347 21.0833 109.655 21.214C109.963 21.3447 110.222 21.5267 110.432 21.76C110.642 21.9933 110.8 22.2757 110.908 22.607C111.015 22.9383 111.069 23.3023 111.069 23.699V28.235H110.516C110.394 28.235 110.301 28.2163 110.236 28.179C110.17 28.137 110.119 28.0577 110.082 27.941L109.942 27.269C109.755 27.4417 109.573 27.5957 109.396 27.731C109.218 27.8617 109.032 27.9737 108.836 28.067C108.64 28.1557 108.43 28.2233 108.206 28.27C107.986 28.3213 107.741 28.347 107.471 28.347C107.195 28.347 106.936 28.3097 106.694 28.235C106.451 28.1557 106.239 28.039 106.057 27.885C105.879 27.731 105.737 27.5373 105.63 27.304C105.527 27.066 105.476 26.786 105.476 26.464C105.476 26.184 105.553 25.9157 105.707 25.659C105.861 25.3977 106.11 25.1667 106.456 24.966C106.801 24.7653 107.251 24.602 107.807 24.476C108.362 24.3453 109.043 24.2707 109.851 24.252V23.699C109.851 23.1483 109.732 22.733 109.494 22.453C109.256 22.1683 108.908 22.026 108.451 22.026C108.143 22.026 107.884 22.0657 107.674 22.145C107.468 22.2197 107.289 22.306 107.135 22.404C106.985 22.4973 106.855 22.5837 106.743 22.663C106.635 22.7377 106.528 22.775 106.421 22.775C106.337 22.775 106.264 22.754 106.204 22.712C106.143 22.6653 106.092 22.6093 106.05 22.544L105.826 22.145ZM114.15 22.565C114.374 22.0797 114.649 21.7017 114.976 21.431C115.302 21.1557 115.701 21.018 116.173 21.018C116.322 21.018 116.464 21.0343 116.6 21.067C116.74 21.0997 116.863 21.151 116.971 21.221L116.88 22.152C116.852 22.2687 116.782 22.327 116.67 22.327C116.604 22.327 116.509 22.313 116.383 22.285C116.257 22.257 116.114 22.243 115.956 22.243C115.732 22.243 115.531 22.2757 115.354 22.341C115.181 22.4063 115.025 22.5043 114.885 22.635C114.749 22.761 114.626 22.9197 114.514 23.111C114.406 23.2977 114.308 23.5123 114.22 23.755V28.235H112.967V21.144H113.681C113.816 21.144 113.909 21.1697 113.961 21.221C114.012 21.2723 114.047 21.361 114.066 21.487L114.15 22.565ZM120.243 28.347C119.683 28.347 119.252 28.1907 118.948 27.878C118.65 27.5653 118.5 27.115 118.5 26.527V22.187H117.646C117.572 22.187 117.509 22.166 117.457 22.124C117.406 22.0773 117.38 22.0073 117.38 21.914V21.417L118.542 21.27L118.829 19.079C118.843 19.009 118.874 18.953 118.92 18.911C118.972 18.8643 119.037 18.841 119.116 18.841H119.746V21.284H121.797V22.187H119.746V26.443C119.746 26.7417 119.819 26.9633 119.963 27.108C120.108 27.2527 120.295 27.325 120.523 27.325C120.654 27.325 120.766 27.3087 120.859 27.276C120.957 27.2387 121.041 27.199 121.111 27.157C121.181 27.115 121.24 27.0777 121.286 27.045C121.338 27.0077 121.382 26.989 121.419 26.989C121.485 26.989 121.543 27.0287 121.594 27.108L121.958 27.703C121.744 27.9037 121.485 28.0623 121.181 28.179C120.878 28.291 120.565 28.347 120.243 28.347Z" fill="white"/>
</svg>
